# xmcd CD database file
#
# Track frame offsets:
#	150
#	14113
#	25097
#	36460
#	46552
#	61041
#	72045
#	82407
#	92635
#	105518
#	116947
#	129090
#	142573
#	155335
#	165744
#
# Disc length: 2382 seconds
#
# Revision: 0
# Processed by: cddbd v1.5.2PL0 Copyright (c) Steve Scherf et al.
# Submitted via: CDex 1.70beta2
#
DISCID=ba094c0f
DTITLE=Various Artist - The Country Box [CD1)
DYEAR=1900
DGENRE=Country
TTITLE0=Barbara Fairchild - The Teddy Bear Song
TTITLE1=Guy Mitchell - Singing The Blues
TTITLE2=Don Gibson - Give Myself A Party
TTITLE3=Faron Young - Hello Walls
TTITLE4=Sandy Posey - Put Your Hand In The Hand
TTITLE5=Porter Wagoner - Eat Drink And Be Merry
TTITLE6=Dave Dudley - Six Days On The Road
TTITLE7=Jan Howard - Evil On Your Mind
TTITLE8=Kitty Wells - This White Circle On My Finger
TTITLE9=Johnny Paycheck - Slide Off Your Satin Sheets
TTITLE10=Lynn Adnerson - How Can I Unlove You
TTITLE11=Stonewall Jackson - BJ The DJ
TTITLE12=Jerry Wallace - In The Misty Moonlight
TTITLE13=LIttle Jimmy Dickens - May The Bird Of Paradise Fly Up Your Nose
TTITLE14=Merle Haggard - Kentucky Gambler
EXTD=
EXTT0=
EXTT1=
EXTT2=
EXTT3=
EXTT4=
EXTT5=
EXTT6=
EXTT7=
EXTT8=
EXTT9=
EXTT10=
EXTT11=
EXTT12=
EXTT13=
EXTT14=
PLAYORDER=
